<?xml version="1.0" encoding="utf-8"?>
<!-- Generator: Adobe Illustrator 25.2.1, SVG Export Plug-In . SVG Version: 6.00 Build 0)  -->
<svg version="1.1" id="Layer_1" xmlns="http://www.w3.org/2000/svg" xmlns:xlink="http://www.w3.org/1999/xlink" x="0px" y="0px"
	 viewBox="0 0 512 80" style="enable-background:new 0 0 512 80;" xml:space="preserve">
<style type="text/css">
	.st0{fill:#FFFFFF;}
</style>
<g>
	<g>
		<path class="st0" d="M15.2,66.2H4.5V14.9h29.4v8.9H15.2V37h17.4v8.9H15.2V66.2z"/>
		<path class="st0" d="M43.9,66.2V14.9h10.9v42.3h20.8v9H43.9z"/>
		<path class="st0" d="M209.2,66.2h-12.4l-6.9-27c-0.3-1-0.7-2.9-1.3-5.9c-0.6-3-1-5-1.1-6.1c-0.1,1.3-0.5,3.3-1.1,6.1
			c-0.6,2.8-1,4.8-1.3,6l-6.9,26.9h-12.4l-13.1-51.3h10.7l6.6,28c1.1,5.2,2,9.7,2.5,13.4c0.1-1.3,0.5-3.4,1-6.2c0.5-2.8,1-5,1.4-6.5
			l7.5-28.7h10.3l7.5,28.7c0.3,1.3,0.7,3.3,1.2,5.9c0.5,2.6,0.9,4.9,1.1,6.8c0.2-1.8,0.6-4.1,1.1-6.8c0.5-2.7,1-4.9,1.4-6.6l6.5-28
			h10.7L209.2,66.2z"/>
		<path class="st0" d="M258.3,66.2h-29.6V14.9h29.6v8.9h-18.7v11.3H257V44h-17.4v13.2h18.7V66.2z"/>
		<path class="st0" d="M279.9,46.5v19.7H269V14.9h15c7,0,12.1,1.3,15.5,3.8c3.3,2.5,5,6.4,5,11.6c0,3-0.8,5.7-2.5,8.1
			c-1.7,2.4-4,4.2-7.1,5.5L310,66.2h-12.1l-12.2-19.7H279.9z M279.9,37.7h3.5c3.4,0,6-0.6,7.6-1.7c1.6-1.1,2.5-2.9,2.5-5.4
			c0-2.4-0.8-4.2-2.5-5.2c-1.7-1-4.3-1.5-7.8-1.5h-3.3V37.7z"/>
		<path class="st0" d="M356.9,23.2c-4.1,0-7.3,1.5-9.5,4.6c-2.2,3.1-3.4,7.4-3.4,12.9c0,11.4,4.3,17.2,12.9,17.2
			c3.6,0,8-0.9,13.1-2.7v9.1c-4.2,1.8-8.9,2.6-14.1,2.6c-7.5,0-13.2-2.3-17.1-6.8c-4-4.5-5.9-11-5.9-19.5c0-5.3,1-10,2.9-14
			c1.9-4,4.7-7.1,8.4-9.2c3.6-2.1,7.9-3.2,12.8-3.2c5,0,10,1.2,15,3.6l-3.5,8.8c-1.9-0.9-3.8-1.7-5.8-2.4
			C360.7,23.6,358.8,23.2,356.9,23.2z"/>
		<path class="st0" d="M412.3,66.2L408.6,54h-18.7l-3.7,12.2h-11.7l18.1-51.5h13.3L424,66.2H412.3z M406,44.9
			c-3.4-11.1-5.4-17.3-5.8-18.8c-0.4-1.5-0.7-2.6-0.9-3.4c-0.8,3-3,10.4-6.6,22.2H406z"/>
		<path class="st0" d="M441.4,46.5v19.7h-10.9V14.9h15c7,0,12.1,1.3,15.5,3.8c3.3,2.5,5,6.4,5,11.6c0,3-0.8,5.7-2.5,8.1
			c-1.7,2.4-4,4.2-7.1,5.5l15.1,22.4h-12.1l-12.2-19.7H441.4z M441.4,37.7h3.5c3.4,0,6-0.6,7.6-1.7c1.6-1.1,2.5-2.9,2.5-5.4
			c0-2.4-0.8-4.2-2.5-5.2c-1.7-1-4.3-1.5-7.8-1.5h-3.3V37.7z"/>
		<path class="st0" d="M507.5,66.2h-29.6V14.9h29.6v8.9h-18.7v11.3h17.4V44h-17.4v13.2h18.7V66.2z"/>
	</g>
	<g>
		<circle class="st0" cx="113.1" cy="40" r="7.7"/>
		<path class="st0" d="M95.7,30.4l7.4,3c0.9-1.4,2.2-2.7,3.6-3.6l-3-7.4c-2.7-6.6-9.7-10.1-16.5-8.6C85.5,20.8,89.1,27.7,95.7,30.4
			L95.7,30.4z"/>
		<path class="st0" d="M113.1,28c0.9,0,1.7,0.1,2.5,0.3l3-7.4c2.7-6.6,0.3-14-5.6-17.7c-5.9,3.8-8.3,11.2-5.6,17.7l3,7.4
			C111.4,28.1,112.3,28,113.1,28L113.1,28z"/>
		<path class="st0" d="M122.7,22.5l-3,7.4c1.4,0.9,2.7,2.2,3.6,3.6l7.4-3c6.6-2.7,10.1-9.7,8.6-16.5
			C132.4,12.4,125.4,15.9,122.7,22.5L122.7,22.5z"/>
		<path class="st0" d="M132.3,34.4l-7.4,3c0.2,0.8,0.3,1.7,0.3,2.5s-0.1,1.7-0.3,2.5l7.4,3c6.6,2.7,14,0.3,17.7-5.6
			C146.3,34.1,138.8,31.7,132.3,34.4L132.3,34.4z"/>
		<path class="st0" d="M130.6,49.6l-7.4-3c-0.9,1.4-2.2,2.7-3.6,3.6l3,7.4c2.7,6.6,9.7,10.1,16.5,8.6
			C140.7,59.2,137.2,52.3,130.6,49.6z"/>
		<path class="st0" d="M113.1,52c-0.9,0-1.7-0.1-2.5-0.3l-3,7.4c-2.7,6.6-0.3,14,5.6,17.7c5.9-3.8,8.3-11.2,5.6-17.7l-3-7.4
			C114.8,51.9,114,52,113.1,52L113.1,52z"/>
		<path class="st0" d="M103.6,57.5l3-7.4c-1.4-0.9-2.7-2.2-3.6-3.6l-7.4,3c-6.6,2.7-10.1,9.7-8.6,16.5
			C93.9,67.6,100.8,64.1,103.6,57.5L103.6,57.5z"/>
		<path class="st0" d="M94,45.6l7.4-3c-0.2-0.8-0.3-1.7-0.3-2.5s0.1-1.7,0.3-2.5l-7.4-3c-6.6-2.7-14-0.3-17.7,5.6
			C80,45.9,87.4,48.3,94,45.6z"/>
	</g>
</g>
</svg>
